<svg xmlns="http://www.w3.org/2000/svg" width="174" height="40" viewBox="0 0 174 40">
  <defs>
    <linearGradient id="logo-a" x1="50%" x2="50%" y1="96.696%" y2="4.318%">
      <stop offset="0%" stop-color="#FFF" stop-opacity="0"/>
      <stop offset="100%" stop-color="#FFF"/>
    </linearGradient>
  </defs>
  <g fill="none" fill-rule="evenodd">
    <path fill="#FFF" d="M0,15.4851138 C0,12.9048324 0.805802339,10.8456002 2.41743119,9.30735552 C4.02906005,7.76911081 6.11374868,7 8.67155963,7 C10.7926712,7 12.5914299,7.50116253 14.0678899,8.50350263 C15.5443499,9.50584272 16.5217101,10.9398622 17,12.8056042 L11.2293578,12.8056042 C10.7302727,11.8131883 9.91407294,11.3169877 8.78073394,11.3169877 C7.64739494,11.3169877 6.80520153,11.6990621 6.25412844,12.4632224 C5.70305535,13.2273827 5.42752294,14.2346698 5.42752294,15.4851138 C5.42752294,16.7355579 5.70305535,17.742845 6.25412844,18.5070053 C6.80520153,19.2711655 7.61100387,19.6532399 8.67155963,19.6532399 C9.33700639,19.6532399 9.85687886,19.5440758 10.2311927,19.3257443 C10.6055065,19.1074128 10.9382248,18.7203764 11.2293578,18.1646235 L17,18.1646235 C16.5217101,19.9509722 15.5339524,21.3701057 14.0366972,22.4220665 C12.5394421,23.4740274 10.7510807,24 8.67155963,24 C6.11374868,24 4.02906005,23.2259272 2.41743119,21.6777583 C0.805802339,20.1295895 0,18.0653953 0,15.4851138 Z M22,6 C21.1599958,6 20.4500029,5.71144567 19.87,5.13432836 C19.2899971,4.55721104 19,3.84577537 19,3 C19,2.15422463 19.2899971,1.44278896 19.87,0.865671642 C20.4500029,0.288554328 21.1599958,0 22,0 C22.8400042,0 23.5499971,0.288554328 24.13,0.865671642 C24.7100029,1.44278896 25,2.15422463 25,3 C25,3.84577537 24.7100029,4.55721104 24.13,5.13432836 C23.5499971,5.71144567 22.8400042,6 22,6 Z M20,24 L20,7 L25,7 L25,24 L20,24 Z M35.1661631,7.18085106 L35.1661631,10.3156028 C36.3746284,8.10518989 37.9858912,7 40,7 L40,12.2446809 L38.7311178,12.2446809 C37.5427937,12.2446809 36.6515639,12.5260019 36.0574018,13.0886525 C35.4632397,13.651303 35.1661631,14.6359268 35.1661631,16.0425532 L35.1661631,24 L30,24 L30,7.18085106 L35.1661631,7.18085106 Z M41,15.4851138 C41,12.9048324 41.8058023,10.8456002 43.4174312,9.30735552 C45.02906,7.76911081 47.1137487,7 49.6715596,7 C51.7926712,7 53.5914299,7.50116253 55.0678899,8.50350263 C56.5443499,9.50584272 57.5217101,10.9398622 58,12.8056042 L52.2293578,12.8056042 C51.7302727,11.8131883 50.9140729,11.3169877 49.7807339,11.3169877 C48.6473949,11.3169877 47.8052015,11.6990621 47.2541284,12.4632224 C46.7030553,13.2273827 46.4275229,14.2346698 46.4275229,15.4851138 C46.4275229,16.7355579 46.7030553,17.742845 47.2541284,18.5070053 C47.8052015,19.2711655 48.6110039,19.6532399 49.6715596,19.6532399 C50.3370064,19.6532399 50.8568789,19.5440758 51.2311927,19.3257443 C51.6055065,19.1074128 51.9382248,18.7203764 52.2293578,18.1646235 L58,18.1646235 C57.5217101,19.9509722 56.5339524,21.3701057 55.0366972,22.4220665 C53.5394421,23.4740274 51.7510807,24 49.6715596,24 C47.1137487,24 45.02906,23.2259272 43.4174312,21.6777583 C41.8058023,20.1295895 41,18.0653953 41,15.4851138 Z M72.7621622,7 L78,7 L78,23.8191489 L72.7621622,23.8191489 L72.7621622,21.3475177 C71.6798745,23.1158481 69.9543662,24 67.5855856,24 C65.6252154,24 64.0375436,23.3569804 62.8225225,22.070922 C61.6075014,20.7848635 61,19.0366541 61,16.8262411 L61,7 L66.2072072,7 L66.2072072,16.1329787 C66.2072072,17.2180905 66.4981953,18.0570301 67.0801802,18.6498227 C67.6621651,19.2426153 68.4636586,19.5390071 69.4846847,19.5390071 C70.5057108,19.5390071 71.3072043,19.2426153 71.8891892,18.6498227 C72.4711741,18.0570301 72.7621622,17.2180905 72.7621622,16.1329787 L72.7621622,7 Z M83,24 L83,2 L88,2 L88,24 L83,24 Z M103,14.9854545 C103,13.7054481 102.646178,12.7212156 101.938525,12.0327273 C101.230871,11.344239 100.418037,11 99.5,11 C98.5819626,11 97.7691292,11.3490874 97.0614754,12.0472727 C96.3538216,12.745458 96,13.7345391 96,15.0145455 C96,16.2945519 96.3538216,17.2787844 97.0614754,17.9672727 C97.7691292,18.655761 98.5819626,19 99.5,19 C100.418037,19 101.230871,18.6509126 101.938525,17.9527273 C102.646178,17.254542 103,16.2654609 103,14.9854545 Z M91,15.5148862 C91,13.0338463 91.7538125,10.9944622 93.2614601,9.3966725 C94.7691077,7.79888285 96.607799,7 98.7775891,7 C100.947379,7 102.612897,7.78399683 103.774194,9.35201401 L103.774194,7.17863398 L109,7.17863398 L109,23.7915937 L103.774194,23.7915937 L103.774194,21.380035 C102.511029,23.1266871 100.820045,24 98.7011885,24 C96.5823324,24 94.7691077,23.2060792 93.2614601,21.6182137 C91.7538125,20.0303482 91,17.995926 91,15.5148862 Z M119.166163,7.18085106 L119.166163,10.3156028 C120.374628,8.10518989 121.985891,7 124,7 L124,12.2446809 L122.731118,12.2446809 C121.542794,12.2446809 120.651564,12.5260019 120.057402,13.0886525 C119.46324,13.651303 119.166163,14.6359268 119.166163,16.0425532 L119.166163,24 L114,24 L114,7.18085106 L119.166163,7.18085106 Z" transform="translate(50 8)"/>
    <circle cx="20" cy="20" r="20" fill="url(#logo-a)"/>
    <path fill="#FFF" d="M20,0 C24.0245194,0 27.7714021,1.18870433 30.9086988,3.23416385 L23.5098052,10.6332776 C22.4177417,10.223883 21.2350162,10 20,10 C14.4771525,10 10,14.4771525 10,20 C10,25.5228475 14.4771525,30 20,30 C21.1562409,30 22.2666491,29.8037668 23.2997373,29.4427877 L30.7346717,36.8780207 C27.6332397,38.8546945 23.9503701,40 20,40 C8.954305,40 0,31.045695 0,20 C0,8.954305 8.954305,0 20,0 Z"/>
  </g>
</svg>
